# xmcd
#
# Track frame offsets:
#	150
#	12665
#	25707
#	37992
#	52737
#	67512
#	82010
#	92565
#	106557
#	121562
#	135737
#
# Disc length: 1945 seconds
#
# Revision: 0
# Processed by: cddbd v1.5.2PL0 Copyright (c) Steve Scherf et al.
# Submitted via: audiograbber 1.83.01
#
DISCID=7107970b
DTITLE=Chicanos - Tesoros De Coleccion 3.3
DYEAR=1975
DGENRE=Latin
TTITLE0=Vecina
TTITLE1=Para Siempre
TTITLE2=Cuando Tu Me Quieras
TTITLE3=Da Lo Mismo
TTITLE4=Que Cosa Te Hice Yo
TTITLE5=No Mi Amor
TTITLE6=Hay Que Saber Perder
TTITLE7=Cantando
TTITLE8=Tu Eres Mi Destino
TTITLE9=Estoy Perdido
TTITLE10=Calixto El Nopalito
EXTD=MS®
EXTT0=MS®
EXTT1=
EXTT2=
EXTT3=
EXTT4=
EXTT5=
EXTT6=
EXTT7=
EXTT8=
EXTT9=
EXTT10=
PLAYORDER=
